  <svg width="24" height="24" viewBox="0 0 24 24">
      <path
        fill="#fff"
        
        d="M17.2447 18.7473C16.3739 19.6165 15.2114 20.1166 14.0232 20.1339C11.9527 20.1638 8.69576 20.2109 7.17774 20.2319C7.10243 20.2319 7.02803 20.231 6.95458 20.2275C6.29246 20.2022 5.79605 19.6699 5.8132 19.0054C5.83034 18.341 6.35676 17.766 7.02077 17.6875C7.09638 17.6788 7.17025 17.6701 7.24484 17.6658C8.04373 17.6163 9.24478 17.5509 10.0695 17.5057C10.2247 17.4977 10.3658 17.3967 10.429 17.2499C10.4921 17.1032 10.4649 16.9397 10.3578 16.8326C8.63744 15.114 4.34197 10.8203 3.05736 9.53574C3.02224 9.50061 2.98723 9.46202 2.95229 9.42169C2.54841 8.99091 2.58667 8.29195 3.03581 7.84782C3.48579 7.40454 4.18438 7.37668 4.61062 7.78677C4.65429 7.82506 4.6945 7.86348 4.73381 7.90278C5.75413 8.92311 8.20059 11.3642 9.17582 12.3376C9.25527 12.4171 9.36629 12.4599 9.48242 12.4559C9.59854 12.4518 9.71283 12.4011 9.79803 12.3159C9.97471 12.1392 9.9835 11.8628 9.81874 11.698C8.69799 10.5791 5.37601 7.2589 4.28782 6.1743C4.27946 6.16593 4.2711 6.15757 4.26279 6.14747C3.84158 5.71729 3.86556 5.00585 4.31358 4.54445C4.76249 4.08216 5.47466 4.03739 5.91925 4.44251C5.9426 4.46766 5.96614 4.48761 5.98789 4.50936C7.14329 5.6522 10.3855 8.9016 11.4969 10.0148C11.5772 10.0951 11.6874 10.1371 11.8044 10.1339C11.9214 10.129 12.0348 10.0791 12.1201 9.9922L12.1218 9.99041C12.2977 9.81289 12.3056 9.53737 12.1408 9.37262C11.1674 8.39739 8.70696 5.93516 7.70862 4.92965C7.69272 4.91376 7.67767 4.8987 7.66268 4.88191C7.24577 4.45245 7.2713 3.74615 7.72003 3.28905C8.16786 2.83286 8.87465 2.79346 9.31225 3.20056C9.36333 3.24985 9.41536 3.2965 9.46303 3.34417C10.5319 4.413 12.8618 6.74477 13.8094 7.69233C13.9733 7.85625 14.248 7.84753 14.4255 7.67342C14.5107 7.58821 14.5613 7.47566 14.5662 7.36037C14.5703 7.24425 14.5282 7.13406 14.4497 7.05371C13.7414 6.34187 12.5909 5.18414 11.9385 4.53353C10.7507 3.35114 12.4051 1.70511 13.5902 2.89019C14.5888 3.88877 17.8764 7.1764 20.5626 9.86444C21.312 10.6138 21.7067 11.6542 21.6589 12.7508C21.6093 13.8474 21.1222 14.9083 20.3045 15.6942C20.3045 15.6942 18.5441 17.4513 17.2447 18.7473Z"
      />
    </svg>