 <svg width="24" height="24" viewBox="0 0 24 24">
      <path
        fillRule="evenodd"
        clipRule="evenodd"
        d="M10.5079 20.9944C9.29707 20.9933 8.1399 20.5296 7.30105 19.71C5.83931 18.2815 3.53997 16.0345 2.46894 14.9866C2.41651 14.9339 2.36533 14.8812 2.31665 14.8273C1.8735 14.3461 1.89847 13.626 2.37282 13.1728C2.84717 12.7197 3.61362 12.6857 4.13041 13.0956C4.18908 13.1424 4.2465 13.1881 4.30142 13.2372C4.89186 13.7618 5.77315 14.5568 6.37857 15.1025C6.49217 15.2055 6.66068 15.2336 6.80673 15.1751C6.95278 15.1165 7.04765 14.9831 7.04765 14.8332C7.0464 12.4258 7.04516 6.41325 7.04516 4.61475C7.04516 4.56558 7.04765 4.51406 7.0514 4.46136C7.07012 3.87709 7.58317 3.41458 8.20481 3.4181C8.82646 3.42278 9.33202 3.89231 9.34325 4.47776C9.347 4.53513 9.34825 4.59016 9.34825 4.6452C9.34825 6.07369 9.35199 9.49505 9.35324 10.8592C9.35324 10.9704 9.40067 11.0781 9.48431 11.1566C9.56794 11.235 9.68279 11.2795 9.80137 11.2795C10.0473 11.2795 10.2458 11.0922 10.2458 10.8615C10.2445 9.29366 10.2433 4.64403 10.2408 3.12303C10.2408 3.11132 10.2408 3.09961 10.242 3.08673C10.2483 2.49074 10.7601 2.00951 11.3929 2.00014C12.0271 1.99077 12.5538 2.45796 12.5813 3.05278C12.5801 3.08673 12.5826 3.11717 12.5826 3.14762C12.5913 4.75643 12.5863 9.30069 12.5851 10.858C12.5851 10.9704 12.6325 11.0769 12.7161 11.1566C12.801 11.235 12.9146 11.2795 13.0344 11.2783C13.0344 11.2783 13.0357 11.2783 13.0369 11.2783C13.2828 11.2772 13.4801 11.0898 13.4801 10.8592C13.4813 9.49505 13.4826 6.0491 13.4876 4.64637C13.4876 4.62412 13.4876 4.60304 13.4888 4.5808C13.4976 3.98832 14.0069 3.51177 14.6372 3.50591C15.2664 3.50006 15.7857 3.96725 15.8069 4.55855C15.8081 4.6288 15.8119 4.69789 15.8119 4.76463C15.8119 6.26103 15.8106 9.52433 15.8106 10.851C15.8106 11.0804 16.0079 11.2666 16.2525 11.269C16.3711 11.269 16.4847 11.2256 16.5683 11.1484C16.652 11.0699 16.6994 10.9634 16.7007 10.8521C16.7032 9.85803 16.7081 8.24219 16.7069 7.33006C16.7032 5.6709 19 5.67676 19 7.33592C19 8.73397 19 13.3368 18.9988 17.0989C18.9988 18.148 18.5494 19.1526 17.753 19.8868C16.9553 20.6198 15.878 21.0214 14.7621 20.9991C14.7621 20.9991 12.3142 20.9968 10.5079 20.9944Z"
      />
    </svg>